<svg width="850" height="212" viewBox="0 0 850 212" fill="none" xmlns="http://www.w3.org/2000/svg">
<path opacity="0.97" d="M626.672 51.4331H223.328V160.54H626.672V51.4331Z" fill="#262120" fill-opacity="0.83"/>
<path d="M383.054 93.842C383.396 94.274 383.567 94.841 383.567 95.543C383.567 96.515 383.207 97.262 382.487 97.784C381.767 98.288 380.84 98.54 379.706 98.54C379.058 98.54 378.239 98.468 377.249 98.324C375.305 98.018 374.036 97.865 373.442 97.865C372.848 97.865 372.434 97.883 372.2 97.919C371.966 97.937 371.66 97.964 371.282 98L374.603 80.18H386.24C386.24 81.278 385.97 82.115 385.43 82.691C384.908 83.267 384.125 83.555 383.081 83.555C382.037 83.555 380.984 83.312 379.922 82.826L379.085 87.551H383.891C383.891 88.505 383.657 89.252 383.189 89.792C382.721 90.314 382.091 90.575 381.299 90.575C380.525 90.575 379.895 90.485 379.409 90.305C378.923 90.125 378.653 90.008 378.599 89.954L377.627 95.057C378.059 95.111 378.68 95.138 379.49 95.138C380.876 95.138 382.064 94.706 383.054 93.842ZM394.558 83.69C395.206 83.69 395.782 83.762 396.286 83.906C396.304 83.834 396.331 83.699 396.367 83.501L396.502 82.664C396.574 82.304 396.664 81.827 396.772 81.233L397.204 79.1L402.577 78.56L399.58 94.22C399.562 94.328 399.553 94.472 399.553 94.652V95.084C399.553 95.48 399.652 95.831 399.85 96.137C400.048 96.425 400.309 96.569 400.633 96.569C400.273 97.415 399.544 98.018 398.446 98.378C398.068 98.486 397.609 98.54 397.069 98.54C396.547 98.54 396.043 98.396 395.557 98.108C395.071 97.838 394.756 97.469 394.612 97.001C394.324 97.469 393.892 97.838 393.316 98.108C392.74 98.396 392.029 98.54 391.183 98.54C390.355 98.54 389.59 98.432 388.888 98.216C388.204 98 387.646 97.658 387.214 97.19C386.422 96.272 386.026 94.769 386.026 92.681C386.026 89.981 386.818 87.812 388.402 86.174C389.986 84.518 392.038 83.69 394.558 83.69ZM394.369 85.31C393.703 85.31 393.19 85.67 392.83 86.39C392.47 87.11 392.101 88.361 391.723 90.143C391.363 91.925 391.183 93.617 391.183 95.219C391.183 96.317 391.507 96.866 392.155 96.866C392.731 96.866 393.217 96.578 393.613 96.002C394.027 95.426 394.315 94.661 394.477 93.707L395.935 85.796C395.557 85.472 395.035 85.31 394.369 85.31ZM423.07 93.491C421.882 95.129 420.712 96.38 419.56 97.244C418.426 98.108 417.265 98.54 416.077 98.54C414.907 98.54 414.115 98.423 413.701 98.189V92.249C412.675 94.985 411.244 96.884 409.408 97.946C408.742 98.342 408.094 98.54 407.464 98.54C406.258 98.54 405.394 98.423 404.872 98.189C404.746 94.067 404.629 91.439 404.521 90.305C404.413 89.153 404.314 88.226 404.224 87.524C404.044 86.12 403.648 85.13 403.036 84.554C403.81 83.978 404.737 83.69 405.817 83.69C407.905 83.69 409.093 84.986 409.381 87.578C409.453 88.19 409.489 88.82 409.489 89.468C409.489 90.44 409.381 92.618 409.165 96.002C409.597 95.804 410.038 95.354 410.488 94.652C410.956 93.932 411.379 93.086 411.757 92.114C412.603 89.864 413.026 87.767 413.026 85.823C413.026 85.517 412.981 85.202 412.891 84.878C412.819 84.554 412.738 84.347 412.648 84.257C413.278 83.879 414.07 83.69 415.024 83.69C415.996 83.69 416.707 84.023 417.157 84.689C417.625 85.337 417.922 86.264 418.048 87.47C418.192 89 418.264 90.224 418.264 91.142C418.264 92.42 418.201 94.004 418.075 95.894C418.975 95.246 419.794 93.86 420.532 91.736C421.27 89.612 421.639 87.794 421.639 86.282C421.639 85.616 421.585 85.085 421.477 84.689C422.071 84.023 422.881 83.69 423.907 83.69C424.537 83.69 425.077 83.861 425.527 84.203C425.995 84.545 426.229 85.04 426.229 85.688C426.229 86.318 426.13 86.975 425.932 87.659C425.752 88.343 425.509 89.036 425.203 89.738C424.609 91.142 423.898 92.393 423.07 93.491ZM440.881 93.707C440.881 94.391 441.115 94.733 441.583 94.733C442.303 94.733 442.942 94.211 443.5 93.167C444.022 92.141 444.283 91.016 444.283 89.792C444.283 87.686 443.779 86.147 442.771 85.175C441.763 84.185 440.206 83.69 438.1 83.69C437.02 83.69 435.985 83.924 434.995 84.392C434.005 84.86 433.132 85.517 432.376 86.363C431.62 87.191 431.017 88.181 430.567 89.333C430.117 90.485 429.892 91.736 429.892 93.086C429.892 95.048 430.468 96.452 431.62 97.298C432.772 98.126 434.437 98.54 436.615 98.54C437.497 98.54 438.352 98.396 439.18 98.108C440.008 97.838 440.647 97.541 441.097 97.217C441.187 97.271 441.268 97.388 441.34 97.568C441.43 97.73 441.475 97.874 441.475 98C441.475 98.684 441.142 99.215 440.476 99.593C439.216 100.295 437.794 100.646 436.21 100.646C434.626 100.646 433.276 100.502 432.16 100.214C431.062 99.926 430.126 99.494 429.352 98.918C427.714 97.712 426.895 96.02 426.895 93.842C426.895 92.15 427.228 90.575 427.894 89.117C428.56 87.641 429.451 86.363 430.567 85.283C431.683 84.185 432.961 83.33 434.401 82.718C435.859 82.088 437.272 81.773 438.64 81.773C440.008 81.773 441.187 81.935 442.177 82.259C443.167 82.565 444.022 83.024 444.742 83.636C446.308 84.914 447.091 86.705 447.091 89.009C447.091 91.133 446.515 92.888 445.363 94.274C444.283 95.57 442.933 96.218 441.313 96.218C440.503 96.218 439.882 96.083 439.45 95.813C439.018 95.543 438.739 95.057 438.613 94.355C438.325 95.075 437.92 95.57 437.398 95.84C436.894 96.092 436.282 96.218 435.562 96.218C433.258 96.218 432.106 94.859 432.106 92.141C432.106 90.431 432.61 88.973 433.618 87.767C434.644 86.525 435.931 85.904 437.479 85.904C438.073 85.904 438.658 86.021 439.234 86.255L442.15 85.904L440.908 93.194C440.89 93.284 440.881 93.374 440.881 93.464V93.707ZM438.613 87.173C438.397 86.993 438.127 86.903 437.803 86.903C437.479 86.903 437.164 87.083 436.858 87.443C436.57 87.803 436.318 88.298 436.102 88.928C435.634 90.26 435.4 91.862 435.4 93.734C435.4 94.076 435.472 94.337 435.616 94.517C435.76 94.697 435.904 94.787 436.048 94.787C436.408 94.787 436.723 94.607 436.993 94.247C437.263 93.887 437.452 93.419 437.56 92.843L438.613 87.173ZM456.889 90.413C457.537 89.261 457.861 88.1 457.861 86.93C457.861 86.156 457.582 85.769 457.024 85.769C456.592 85.769 456.151 86.138 455.701 86.876C455.233 87.614 454.927 88.46 454.783 89.414L453.379 98L447.79 98.54L450.544 84.23L454.999 83.69L454.513 86.417C455.395 84.599 456.826 83.69 458.806 83.69C459.85 83.69 460.651 83.96 461.209 84.5C461.785 85.04 462.073 85.868 462.073 86.984C462.073 88.082 461.704 88.982 460.966 89.684C460.246 90.386 459.265 90.737 458.023 90.737C457.483 90.737 457.105 90.629 456.889 90.413ZM471.023 83.69C471.671 83.69 472.247 83.762 472.751 83.906C472.769 83.834 472.796 83.699 472.832 83.501L472.967 82.664C473.039 82.304 473.129 81.827 473.237 81.233L473.669 79.1L479.042 78.56L476.045 94.22C476.027 94.328 476.018 94.472 476.018 94.652V95.084C476.018 95.48 476.117 95.831 476.315 96.137C476.513 96.425 476.774 96.569 477.098 96.569C476.738 97.415 476.009 98.018 474.911 98.378C474.533 98.486 474.074 98.54 473.534 98.54C473.012 98.54 472.508 98.396 472.022 98.108C471.536 97.838 471.221 97.469 471.077 97.001C470.789 97.469 470.357 97.838 469.781 98.108C469.205 98.396 468.494 98.54 467.648 98.54C466.82 98.54 466.055 98.432 465.353 98.216C464.669 98 464.111 97.658 463.679 97.19C462.887 96.272 462.491 94.769 462.491 92.681C462.491 89.981 463.283 87.812 464.867 86.174C466.451 84.518 468.503 83.69 471.023 83.69ZM470.834 85.31C470.168 85.31 469.655 85.67 469.295 86.39C468.935 87.11 468.566 88.361 468.188 90.143C467.828 91.925 467.648 93.617 467.648 95.219C467.648 96.317 467.972 96.866 468.62 96.866C469.196 96.866 469.682 96.578 470.078 96.002C470.492 95.426 470.78 94.661 470.942 93.707L472.4 85.796C472.022 85.472 471.5 85.31 470.834 85.31ZM300.436 110.991C304.846 110.991 307.051 112.548 307.051 115.662C307.051 117.372 306.502 118.74 305.404 119.766C304.324 120.792 302.839 121.305 300.949 121.305C300.067 121.305 299.284 121.053 298.6 120.549C298.276 120.333 298.006 120.081 297.79 119.793C299.104 119.793 300.103 119.397 300.787 118.605C301.489 117.795 301.84 116.607 301.84 115.041C301.84 113.475 301.066 112.692 299.518 112.692H298.87C298.762 112.692 298.663 112.701 298.573 112.719L295.468 129H289.609L292.93 111.315C294.856 111.135 296.377 111.036 297.493 111.018C298.609 111 299.59 110.991 300.436 110.991ZM315.762 125.949C314.826 126.921 313.503 127.407 311.793 127.407C309.651 127.407 308.355 126.624 307.905 125.058C307.761 124.59 307.689 124.095 307.689 123.573C307.689 123.051 307.743 122.52 307.851 121.98L309.12 115.23L314.601 114.69L313.116 122.547C313.08 122.781 313.035 123.024 312.981 123.276C312.927 123.528 312.9 123.789 312.9 124.059C312.9 124.311 312.945 124.527 313.035 124.707C313.125 124.869 313.233 125.004 313.359 125.112C313.575 125.256 313.872 125.328 314.25 125.328C314.646 125.328 315.006 125.094 315.33 124.626C315.672 124.158 315.924 123.519 316.086 122.709L317.571 115.23L322.89 114.69L320.865 125.301C320.199 128.757 319.182 131.169 317.814 132.537C317.112 133.239 316.302 133.725 315.384 133.995C314.484 134.283 313.449 134.427 312.279 134.427C310.389 134.427 308.904 134.13 307.824 133.536C306.744 132.942 306.204 132.15 306.204 131.16C306.204 130.422 306.483 129.837 307.041 129.405C307.599 128.991 308.31 128.784 309.174 128.784C309.93 128.784 310.596 128.946 311.172 129.27C311.514 129.468 311.766 129.693 311.928 129.945C311.514 130.305 311.307 130.782 311.307 131.376C311.307 132.168 311.667 132.564 312.387 132.564C313.575 132.564 314.511 131.196 315.195 128.46C315.393 127.65 315.582 126.813 315.762 125.949ZM324.298 126.3C324.298 125.814 324.424 124.959 324.676 123.735L326.107 116.445H324.514L324.622 115.635C326.782 114.987 328.906 113.871 330.994 112.287H332.29L331.642 115.23H333.748L333.505 116.445H331.426L330.049 123.735C329.815 124.851 329.698 125.598 329.698 125.976C329.698 126.84 330.076 127.362 330.832 127.542C330.652 128.154 330.238 128.64 329.59 129C328.942 129.36 328.159 129.54 327.241 129.54C326.323 129.54 325.603 129.252 325.081 128.676C324.559 128.1 324.298 127.308 324.298 126.3ZM347.203 126.003C347.203 126.795 347.608 127.308 348.418 127.542C348.22 128.208 347.734 128.721 346.96 129.081C346.312 129.387 345.628 129.54 344.908 129.54C344.206 129.54 343.666 129.441 343.288 129.243C342.928 129.063 342.649 128.82 342.451 128.514C342.127 128.046 341.965 127.371 341.965 126.489C341.965 125.967 342.109 124.986 342.397 123.546L342.775 121.494C343.081 119.928 343.234 118.857 343.234 118.281C343.234 117.273 342.955 116.769 342.397 116.769C341.695 116.769 341.119 117.282 340.669 118.308C340.489 118.704 340.336 119.199 340.21 119.793L338.374 129L332.947 129.54L336.754 110.1L342.181 109.56L341.965 110.64C341.461 113.412 340.993 115.266 340.561 116.202C341.569 115.194 343 114.69 344.854 114.69C346.816 114.69 347.977 115.338 348.337 116.634C348.463 117.048 348.526 117.435 348.526 117.795C348.526 118.155 348.508 118.479 348.472 118.767C348.454 119.037 348.4 119.424 348.31 119.928L347.959 121.872L347.338 124.923C347.248 125.337 347.203 125.697 347.203 126.003ZM356.489 129.54C352.529 129.54 350.549 127.677 350.549 123.951C350.549 121.305 351.278 119.127 352.736 117.417C354.284 115.599 356.399 114.69 359.081 114.69C361.025 114.69 362.492 115.14 363.482 116.04C364.472 116.94 364.967 118.335 364.967 120.225C364.967 123.105 364.193 125.382 362.645 127.056C361.133 128.712 359.081 129.54 356.489 129.54ZM357.191 117.795C356.975 118.281 356.777 118.893 356.597 119.631C356.435 120.351 356.246 121.287 356.03 122.439C355.814 123.591 355.706 124.878 355.706 126.3C355.706 126.768 355.778 127.155 355.922 127.461C356.084 127.767 356.372 127.92 356.786 127.92C357.2 127.92 357.533 127.821 357.785 127.623C358.055 127.425 358.289 127.092 358.487 126.624C358.847 125.796 359.171 124.617 359.459 123.087C359.747 121.539 359.9 120.432 359.918 119.766C359.954 119.1 359.972 118.524 359.972 118.038C359.972 117.534 359.9 117.12 359.756 116.796C359.612 116.472 359.333 116.31 358.919 116.31C358.523 116.31 358.19 116.436 357.92 116.688C357.65 116.94 357.407 117.309 357.191 117.795ZM377.976 129.54C375.798 129.54 374.709 128.694 374.709 127.002C374.727 126.534 374.808 125.904 374.952 125.112L375.438 122.628C375.924 120.288 376.167 118.857 376.167 118.335C376.167 117.291 375.861 116.769 375.249 116.769C374.223 116.769 373.44 118.11 372.9 120.792L371.307 129L365.88 129.54L368.688 115.203L373.116 114.69L372.684 117.336C373.53 115.572 375.249 114.69 377.841 114.69C379.101 114.69 379.992 114.96 380.514 115.5C381.054 116.022 381.324 116.877 381.324 118.065C381.324 119.181 381.036 121.044 380.46 123.654C380.19 124.824 380.055 125.634 380.055 126.084C380.055 126.516 380.172 126.858 380.406 127.11C380.658 127.362 380.964 127.506 381.324 127.542C381.144 128.154 380.739 128.64 380.109 129C379.497 129.36 378.786 129.54 377.976 129.54ZM401.628 127.164C400.872 127.92 399.972 128.505 398.928 128.919C397.902 129.333 396.876 129.54 395.85 129.54C394.824 129.54 394.131 129.45 393.771 129.27L392.934 133.86L387.453 134.4L391.179 115.23L395.58 114.771L395.229 116.634C395.985 115.356 397.146 114.717 398.712 114.717C400.476 114.717 401.826 115.284 402.762 116.418C403.59 117.444 404.004 118.74 404.004 120.306C404.004 121.872 403.797 123.213 403.383 124.329C402.969 125.445 402.384 126.39 401.628 127.164ZM394.095 127.488C394.473 127.812 394.896 127.974 395.364 127.974C395.832 127.974 396.201 127.884 396.471 127.704C396.741 127.524 396.975 127.254 397.173 126.894C397.713 125.922 398.199 123.96 398.631 121.008C398.757 120.144 398.82 119.289 398.82 118.443C398.82 117.597 398.721 117.039 398.523 116.769C398.343 116.499 398.073 116.364 397.713 116.364C396.615 116.364 395.886 117.435 395.526 119.577L394.095 127.488ZM414.082 121.413C414.73 120.261 415.054 119.1 415.054 117.93C415.054 117.156 414.775 116.769 414.217 116.769C413.785 116.769 413.344 117.138 412.894 117.876C412.426 118.614 412.12 119.46 411.976 120.414L410.572 129L404.983 129.54L407.737 115.23L412.192 114.69L411.706 117.417C412.588 115.599 414.019 114.69 415.999 114.69C417.043 114.69 417.844 114.96 418.402 115.5C418.978 116.04 419.266 116.868 419.266 117.984C419.266 119.082 418.897 119.982 418.159 120.684C417.439 121.386 416.458 121.737 415.216 121.737C414.676 121.737 414.298 121.629 414.082 121.413ZM425.597 129.54C421.637 129.54 419.657 127.677 419.657 123.951C419.657 121.305 420.386 119.127 421.844 117.417C423.392 115.599 425.507 114.69 428.189 114.69C430.133 114.69 431.6 115.14 432.59 116.04C433.58 116.94 434.075 118.335 434.075 120.225C434.075 123.105 433.301 125.382 431.753 127.056C430.241 128.712 428.189 129.54 425.597 129.54ZM426.299 117.795C426.083 118.281 425.885 118.893 425.705 119.631C425.543 120.351 425.354 121.287 425.138 122.439C424.922 123.591 424.814 124.878 424.814 126.3C424.814 126.768 424.886 127.155 425.03 127.461C425.192 127.767 425.48 127.92 425.894 127.92C426.308 127.92 426.641 127.821 426.893 127.623C427.163 127.425 427.397 127.092 427.595 126.624C427.955 125.796 428.279 124.617 428.567 123.087C428.855 121.539 429.008 120.432 429.026 119.766C429.062 119.1 429.08 118.524 429.08 118.038C429.08 117.534 429.008 117.12 428.864 116.796C428.72 116.472 428.441 116.31 428.027 116.31C427.631 116.31 427.298 116.436 427.028 116.688C426.758 116.94 426.515 117.309 426.299 117.795ZM437.58 117.714C438.192 116.85 438.957 116.13 439.875 115.554C440.811 114.978 441.846 114.69 442.98 114.69C444.114 114.69 444.951 114.87 445.491 115.23L450.783 114.69L448.947 125.058C448.317 128.586 447.336 131.043 446.004 132.429C444.726 133.743 442.845 134.4 440.361 134.4C438.471 134.4 436.986 134.103 435.906 133.509C434.826 132.915 434.286 132.123 434.286 131.133C434.286 130.395 434.565 129.81 435.123 129.378C435.681 128.964 436.392 128.757 437.256 128.757C438.012 128.757 438.678 128.928 439.254 129.27C439.596 129.45 439.848 129.666 440.01 129.918C439.596 130.278 439.389 130.755 439.389 131.349C439.389 132.123 439.749 132.51 440.469 132.51C441.675 132.51 442.62 131.088 443.304 128.244C443.502 127.47 443.682 126.696 443.844 125.922C443.034 126.912 441.711 127.407 439.875 127.407C438.597 127.407 437.589 127.101 436.851 126.489C436.113 125.877 435.744 124.851 435.744 123.411C435.744 122.511 435.897 121.557 436.203 120.549C436.509 119.523 436.968 118.578 437.58 117.714ZM441.09 123.492C441.09 124.716 441.405 125.328 442.035 125.328C442.467 125.328 442.89 125.094 443.304 124.626C443.628 124.248 443.853 123.78 443.979 123.222L445.356 116.283C445.266 116.265 445.176 116.238 445.086 116.202C444.906 116.13 444.699 116.094 444.465 116.094C443.367 116.094 442.494 116.994 441.846 118.794C441.342 120.198 441.09 121.764 441.09 123.492ZM460.277 121.413C460.925 120.261 461.249 119.1 461.249 117.93C461.249 117.156 460.97 116.769 460.412 116.769C459.98 116.769 459.539 117.138 459.089 117.876C458.621 118.614 458.315 119.46 458.171 120.414L456.767 129L451.178 129.54L453.932 115.23L458.387 114.69L457.901 117.417C458.783 115.599 460.214 114.69 462.194 114.69C463.238 114.69 464.039 114.96 464.597 115.5C465.173 116.04 465.461 116.868 465.461 117.984C465.461 119.082 465.092 119.982 464.354 120.684C463.634 121.386 462.653 121.737 461.411 121.737C460.871 121.737 460.493 121.629 460.277 121.413ZM467.067 128.19C466.653 127.722 466.347 127.119 466.149 126.381C465.969 125.643 465.879 124.671 465.879 123.465C465.879 122.259 466.086 121.107 466.5 120.009C466.914 118.911 467.499 117.966 468.255 117.174C469.803 115.518 471.855 114.69 474.411 114.69C475.329 114.69 476.121 114.843 476.787 115.149L481.404 114.69L479.406 125.22C479.352 125.436 479.325 125.742 479.325 126.138C479.325 126.534 479.442 126.858 479.676 127.11C479.928 127.362 480.234 127.506 480.594 127.542C480.414 128.154 479.991 128.64 479.325 129C478.677 129.36 477.984 129.54 477.246 129.54C476.508 129.54 475.887 129.396 475.383 129.108C474.897 128.838 474.582 128.469 474.438 128.001C474.15 128.451 473.7 128.82 473.088 129.108C472.476 129.396 471.756 129.54 470.928 129.54C470.118 129.54 469.38 129.432 468.714 129.216C468.048 129 467.499 128.658 467.067 128.19ZM472.764 117.228C472.566 117.552 472.377 117.993 472.197 118.551C472.017 119.091 471.774 120.099 471.468 121.575C471.18 123.033 471.036 124.284 471.036 125.328C471.036 126.372 471.117 127.047 471.279 127.353C471.441 127.659 471.666 127.812 471.954 127.812C472.53 127.812 473.025 127.542 473.439 127.002C473.871 126.444 474.168 125.679 474.33 124.707L475.761 116.796C475.383 116.472 474.969 116.31 474.519 116.31C474.087 116.31 473.736 116.382 473.466 116.526C473.214 116.67 472.98 116.904 472.764 117.228ZM502.3 129.54C500.122 129.54 499.033 128.694 499.033 127.002C499.033 126.264 499.186 125.184 499.492 123.762C499.816 122.322 500.032 121.314 500.14 120.738C500.392 119.424 500.518 118.56 500.518 118.146C500.518 117.228 500.176 116.769 499.492 116.769C499.042 116.769 498.601 117.084 498.169 117.714C497.737 118.326 497.422 119.253 497.224 120.495L495.55 129L490.285 129.54L491.743 122.196C491.905 121.386 492.058 120.522 492.202 119.604C492.346 118.686 492.418 118.155 492.418 118.011C492.418 117.183 492.112 116.769 491.5 116.769C491.086 116.769 490.654 117.075 490.204 117.687C489.754 118.299 489.403 119.235 489.151 120.495L487.504 129L482.185 129.54L485.02 115.23L489.421 114.69L488.962 117.417C489.43 116.445 490.096 115.752 490.96 115.338C491.824 114.906 492.931 114.69 494.281 114.69C495.055 114.69 495.694 114.879 496.198 115.257C496.702 115.635 497.035 116.13 497.197 116.742C497.503 116.112 498.043 115.617 498.817 115.257C499.609 114.879 500.482 114.69 501.436 114.69C502.408 114.69 503.128 114.798 503.596 115.014C504.082 115.212 504.469 115.482 504.757 115.824C505.243 116.454 505.486 117.345 505.486 118.497C505.486 119.631 505.243 121.377 504.757 123.735C504.505 124.887 504.379 125.679 504.379 126.111C504.379 126.525 504.496 126.858 504.73 127.11C504.982 127.362 505.288 127.506 505.648 127.542C505.468 128.154 505.063 128.64 504.433 129C503.821 129.36 503.11 129.54 502.3 129.54ZM527.165 129.54C524.987 129.54 523.898 128.694 523.898 127.002C523.898 126.264 524.051 125.184 524.357 123.762C524.681 122.322 524.897 121.314 525.005 120.738C525.257 119.424 525.383 118.56 525.383 118.146C525.383 117.228 525.041 116.769 524.357 116.769C523.907 116.769 523.466 117.084 523.034 117.714C522.602 118.326 522.287 119.253 522.089 120.495L520.415 129L515.15 129.54L516.608 122.196C516.77 121.386 516.923 120.522 517.067 119.604C517.211 118.686 517.283 118.155 517.283 118.011C517.283 117.183 516.977 116.769 516.365 116.769C515.951 116.769 515.519 117.075 515.069 117.687C514.619 118.299 514.268 119.235 514.016 120.495L512.369 129L507.05 129.54L509.885 115.23L514.286 114.69L513.827 117.417C514.295 116.445 514.961 115.752 515.825 115.338C516.689 114.906 517.796 114.69 519.146 114.69C519.92 114.69 520.559 114.879 521.063 115.257C521.567 115.635 521.9 116.13 522.062 116.742C522.368 116.112 522.908 115.617 523.682 115.257C524.474 114.879 525.347 114.69 526.301 114.69C527.273 114.69 527.993 114.798 528.461 115.014C528.947 115.212 529.334 115.482 529.622 115.824C530.108 116.454 530.351 117.345 530.351 118.497C530.351 119.631 530.108 121.377 529.622 123.735C529.37 124.887 529.244 125.679 529.244 126.111C529.244 126.525 529.361 126.858 529.595 127.11C529.847 127.362 530.153 127.506 530.513 127.542C530.333 128.154 529.928 128.64 529.298 129C528.686 129.36 527.975 129.54 527.165 129.54ZM543.524 124.437C543.974 124.743 544.199 125.238 544.199 125.922C544.199 126.588 544.028 127.137 543.686 127.569C543.344 128.001 542.894 128.361 542.336 128.649C541.184 129.243 539.987 129.54 538.745 129.54C537.503 129.54 536.513 129.405 535.775 129.135C535.055 128.865 534.452 128.478 533.966 127.974C533.012 127.02 532.535 125.67 532.535 123.924C532.535 121.206 533.273 119.019 534.749 117.363C536.333 115.581 538.502 114.69 541.256 114.69C542.966 114.69 544.244 115.05 545.09 115.77C545.72 116.31 546.035 117.021 546.035 117.903C546.035 121.071 543.299 122.655 537.827 122.655C537.755 123.123 537.719 123.555 537.719 123.951C537.719 124.779 537.899 125.355 538.259 125.679C538.637 125.985 539.168 126.138 539.852 126.138C540.536 126.138 541.238 125.985 541.958 125.679C542.696 125.355 543.218 124.941 543.524 124.437ZM538.016 121.494C539.294 121.494 540.302 121.098 541.04 120.306C541.778 119.55 542.147 118.569 542.147 117.363C542.147 116.949 542.066 116.634 541.904 116.418C541.76 116.184 541.535 116.067 541.229 116.067C540.923 116.067 540.635 116.13 540.365 116.256C540.113 116.364 539.852 116.616 539.582 117.012C538.916 117.912 538.394 119.406 538.016 121.494ZM555.41 121.413C556.058 120.261 556.382 119.1 556.382 117.93C556.382 117.156 556.103 116.769 555.545 116.769C555.113 116.769 554.672 117.138 554.222 117.876C553.754 118.614 553.448 119.46 553.304 120.414L551.9 129L546.311 129.54L549.065 115.23L553.52 114.69L553.034 117.417C553.916 115.599 555.347 114.69 557.327 114.69C558.371 114.69 559.172 114.96 559.73 115.5C560.306 116.04 560.594 116.868 560.594 117.984C560.594 119.082 560.225 119.982 559.487 120.684C558.767 121.386 557.786 121.737 556.544 121.737C556.004 121.737 555.626 121.629 555.41 121.413Z" fill="#466CF2" fill-opacity="0.88"/>
</svg>
